<svg width="350" height="350" viewBox="0 0 350 350" fill="none" xmlns="http://www.w3.org/2000/svg">
  <path d="M46.4844 131.25H65.625C67.1289 131.25 68.3594 130.02 68.3594 128.516V68.3594H128.516C130.02 68.3594 131.25 67.1289 131.25 65.625V46.4844C131.25 44.9805 130.02 43.75 128.516 43.75H66.9922C54.1406 43.75 43.75 54.1406 43.75 66.9922V128.516C43.75 130.02 44.9805 131.25 46.4844 131.25ZM221.484 68.3594H281.641V128.516C281.641 130.02 282.871 131.25 284.375 131.25H303.516C305.02 131.25 306.25 130.02 306.25 128.516V66.9922C306.25 54.1406 295.859 43.75 283.008 43.75H221.484C219.98 43.75 218.75 44.9805 218.75 46.4844V65.625C218.75 67.1289 219.98 68.3594 221.484 68.3594ZM128.516 281.641H68.3594V221.484C68.3594 219.98 67.1289 218.75 65.625 218.75H46.4844C44.9805 218.75 43.75 219.98 43.75 221.484V283.008C43.75 295.859 54.1406 306.25 66.9922 306.25H128.516C130.02 306.25 131.25 305.02 131.25 303.516V284.375C131.25 282.871 130.02 281.641 128.516 281.641ZM303.516 218.75H284.375C282.871 218.75 281.641 219.98 281.641 221.484V281.641H221.484C219.98 281.641 218.75 282.871 218.75 284.375V303.516C218.75 305.02 219.98 306.25 221.484 306.25H283.008C295.859 306.25 306.25 295.859 306.25 283.008V221.484C306.25 219.98 305.02 218.75 303.516 218.75ZM308.984 162.695H41.0156C39.5117 162.695 38.2812 163.926 38.2812 165.43V184.57C38.2812 186.074 39.5117 187.305 41.0156 187.305H308.984C310.488 187.305 311.719 186.074 311.719 184.57V165.43C311.719 163.926 310.488 162.695 308.984 162.695Z" fill="black" fill-opacity="0.7"/>
</svg>
