<svg xmlns="http://www.w3.org/2000/svg" width="64px" height="64px" viewBox="0 0 752 752" preserveAspectRatio="xMidYMid meet">

  <g transform="translate(0.000000,752.000000) scale(0.100000,-0.100000)" fill="#ce8a0e" stroke="none">
    <path d="M3045 6105 c-14 -13 -25 -36 -25 -50 0 -14 11 -37 25 -50 19 -20 34 -25 75 -25 l50 0 0 -408 0 -407 -82 -17 c-234 -48 -450 -233 -535 -457 -53 -139 -52 -125 -53 -1407 0 -1028 2 -1203 15 -1279 54 -306 294 -546 600 -600 129 -22 1161 -22 1290 0 306 54 546 294 600 600 13 76 15 251 15 1279 -1 1289 0 1272 -55 1411 -89 225 -301 405 -532 453 l-83 17 0 407 0 408 50 0 c41 0 56 5 75 25 32 31 32 69 0 100 l-24 25 -691 0 -691 0 -24 -25z m1155 -530 l0 -405 -185 0 -185 0 0 50 c0 59 -24 90 -70 90 -46 0 -70 -31 -70 -90 l0 -50 -185 0 -185 0 0 405 0 405 440 0 440 0 0 -405z m-703 -1011 c109 -57 312 -191 423 -280 275 -221 508 -523 616 -801 l36 -93 149 0 149 0 0 -75 0 -75 -131 0 c-120 0 -130 -1 -125 -17 34 -111 41 -419 13 -552 -80 -375 -351 -641 -725 -712 -88 -17 -278 -6 -370 20 -310 89 -549 350 -635 691 -31 125 -29 321 5 445 14 50 28 98 32 108 8 16 -3 17 -138 17 l-146 0 0 75 0 75 190 0 190 0 95 128 c105 140 135 204 135 288 0 104 57 173 150 182 l49 4 -44 87 c-24 48 -77 137 -118 199 -42 62 -79 126 -82 143 -21 94 55 189 152 189 31 0 66 -12 130 -46z"/>
    <path d="M3360 4455 c0 -2 32 -53 71 -112 88 -132 169 -297 205 -418 24 -78 27 -108 28 -225 1 -147 -11 -203 -62 -290 l-27 -45 -7 110 c-5 72 -16 137 -33 190 -25 81 -84 175 -109 175 -16 0 -28 -24 -20 -44 9 -24 -15 -128 -45 -191 -15 -33 -77 -125 -137 -205 -168 -224 -198 -301 -198 -515 0 -105 4 -145 22 -208 46 -160 145 -318 260 -413 137 -113 278 -164 453 -164 207 0 364 65 510 210 73 73 93 100 138 190 73 148 95 258 88 440 -3 74 -13 173 -22 220 -87 448 -380 846 -850 1155 -164 107 -265 161 -265 140z m570 -581 c208 -220 337 -455 396 -719 25 -114 30 -337 10 -429 -24 -105 -86 -224 -155 -298 l-56 -60 -1 114 c-1 94 -5 125 -27 186 -35 100 -106 210 -191 296 -68 69 -195 171 -203 163 -2 -2 12 -37 32 -78 70 -149 81 -261 34 -350 l-23 -44 -7 77 c-6 77 -30 135 -49 123 -6 -4 -10 -16 -10 -28 0 -31 -27 -71 -104 -154 -36 -39 -76 -92 -87 -118 -22 -49 -28 -142 -14 -204 l7 -33 -57 43 c-235 178 -325 536 -196 787 17 31 66 104 110 161 l81 104 0 -43 c0 -85 64 -153 144 -153 85 0 152 66 205 203 39 102 55 210 48 323 -6 82 -32 217 -53 272 -10 25 87 -58 166 -141z m31 -1264 c17 -55 22 -181 10 -227 -37 -138 -203 -184 -302 -84 -55 54 -72 130 -45 195 l14 34 45 -16 c82 -29 161 12 213 113 26 49 30 53 42 38 7 -9 17 -33 23 -53z"/>
  </g>
</svg>
